<mxfile host="65bd71144e">
    <diagram id="vwbJsP5kCBEH-EEFsKNK" name="Page-1">
        <mxGraphModel dx="969" dy="331" grid="1" gridSize="10" guides="1" tooltips="1" connect="1" arrows="1" fold="1" page="1" pageScale="1" pageWidth="850" pageHeight="1100" math="0" shadow="0">
            <root>
                <mxCell id="0"/>
                <mxCell id="1" parent="0"/>
                <mxCell id="3" value="&lt;b&gt;passages&lt;/b&gt;&lt;br&gt;&lt;div&gt;phrases&lt;/div&gt;&lt;div&gt;...&lt;/div&gt;" style="shape=cylinder3;whiteSpace=wrap;html=1;boundedLbl=1;backgroundOutline=1;size=15;align=left;" parent="1" vertex="1">
                    <mxGeometry x="69" y="73" width="100" height="90" as="geometry"/>
                </mxCell>
                <mxCell id="5" value="&lt;b&gt;freeRecallGrades&lt;/b&gt;&lt;br&gt;&lt;div&gt;researcher&lt;/div&gt;&lt;div&gt;user&lt;br&gt;&lt;/div&gt;&lt;div&gt;project&lt;/div&gt;&lt;div&gt;passage&lt;/div&gt;&lt;div&gt;phrase&lt;/div&gt;&lt;div&gt;&lt;span&gt;passageIdx&lt;/span&gt;&lt;br&gt;&lt;/div&gt;&lt;div&gt;&lt;span&gt;condition&lt;/span&gt;&lt;/div&gt;&lt;div&gt;&lt;span&gt;approved&lt;/span&gt;&lt;br&gt;&lt;/div&gt;&lt;div&gt;&lt;span&gt;session&lt;/span&gt;&lt;br&gt;&lt;/div&gt;&lt;div&gt;response&lt;/div&gt;&lt;div&gt;grade&lt;/div&gt;&lt;div&gt;createdAt&lt;/div&gt;" style="shape=cylinder3;whiteSpace=wrap;html=1;boundedLbl=1;backgroundOutline=1;size=15;align=left;" parent="1" vertex="1">
                    <mxGeometry x="59.5" y="513" width="110.5" height="238" as="geometry"/>
                </mxCell>
                <mxCell id="16" value="Get all feedbackCodes&lt;br&gt;with the same:&lt;br&gt;explanation &amp;amp;&amp;amp;&lt;br&gt;code &amp;amp;&amp;amp;&lt;br&gt;condition &amp;amp;&amp;amp;&lt;br&gt;expIdx &amp;amp;&amp;amp;&lt;br&gt;session" style="shape=trapezoid;perimeter=trapezoidPerimeter;whiteSpace=wrap;html=1;fixedSize=1;" parent="1" vertex="1">
                    <mxGeometry x="530.5" y="567" width="115" height="125" as="geometry"/>
                </mxCell>
                <mxCell id="19" style="edgeStyle=orthogonalEdgeStyle;rounded=0;orthogonalLoop=1;jettySize=auto;html=1;" parent="1" source="22" edge="1">
                    <mxGeometry relative="1" as="geometry">
                        <mxPoint x="560" y="716" as="targetPoint"/>
                    </mxGeometry>
                </mxCell>
                <mxCell id="20" value="No" style="edgeLabel;html=1;align=center;verticalAlign=middle;resizable=0;points=[];" parent="19" connectable="0" vertex="1">
                    <mxGeometry x="-0.325" y="-1" relative="1" as="geometry">
                        <mxPoint y="-14" as="offset"/>
                    </mxGeometry>
                </mxCell>
                <mxCell id="22" value="&amp;gt;= 2" style="rhombus;whiteSpace=wrap;html=1;rounded=0;shadow=1;labelBackgroundColor=none;strokeWidth=1;fontFamily=Verdana;fontSize=8;align=center;" parent="1" vertex="1">
                    <mxGeometry x="693" y="686" width="100" height="60" as="geometry"/>
                </mxCell>
                <mxCell id="25" value="Set approved = false" style="rounded=1;whiteSpace=wrap;html=1;shadow=1;labelBackgroundColor=none;strokeWidth=1;fontFamily=Verdana;fontSize=8;align=center;" parent="1" vertex="1">
                    <mxGeometry x="365" y="746" width="120" height="30" as="geometry"/>
                </mxCell>
                <mxCell id="26" value="&lt;b&gt;researchers&lt;/b&gt;&lt;br&gt;id&lt;br&gt;projects:&lt;br&gt;&amp;nbsp; &amp;nbsp;H2K2:&lt;br&gt;&amp;nbsp; &amp;nbsp;{&lt;br&gt;&amp;nbsp; &amp;nbsp; &amp;nbsp; expPoints 112&lt;br&gt;// Intellectual Points&lt;br&gt;&amp;nbsp; &amp;nbsp; &amp;nbsp; points 1&lt;br&gt;&amp;nbsp; &amp;nbsp; &amp;nbsp; upVotes 0&amp;nbsp;&lt;br&gt;&amp;nbsp; &amp;nbsp; &amp;nbsp; noVotes 0&lt;br&gt;&lt;div&gt;&amp;nbsp; &amp;nbsp; &amp;nbsp; dayUpVotePoints 70&amp;nbsp;&lt;/div&gt;// Instructors&amp;nbsp;Points&lt;br&gt;&amp;nbsp; &amp;nbsp; &amp;nbsp; instructors 1&lt;br&gt;&amp;nbsp; &amp;nbsp; &amp;nbsp; instructorDownVotes 3&lt;br&gt;&amp;nbsp; &amp;nbsp; &amp;nbsp; instructorUpVotes 0&lt;br&gt;&amp;nbsp; &amp;nbsp; &amp;nbsp;&amp;nbsp;dayInstructorUpVotes 0&lt;br&gt;&lt;div&gt;&lt;/div&gt;// 1Cademy&amp;nbsp;Points&lt;br&gt;&amp;nbsp; &amp;nbsp; &amp;nbsp; onePoints 4&lt;br&gt;&amp;nbsp; &amp;nbsp; &amp;nbsp; dayOneUpVotePoints 0&lt;br&gt;// Coding Points&lt;br&gt;&amp;nbsp; &amp;nbsp; &amp;nbsp; codesNum&lt;br&gt;&amp;nbsp; &amp;nbsp; &amp;nbsp; codesGenerated&lt;br&gt;&amp;nbsp; &amp;nbsp; &amp;nbsp; codePoints&lt;br&gt;// # of consecutive same codes assigned&lt;br&gt;&amp;nbsp; &amp;nbsp; &amp;nbsp; sameCode&lt;br&gt;// FreeRecallGrading Points&lt;br&gt;&amp;nbsp; &amp;nbsp; &amp;nbsp; gradedNum&lt;br&gt;&amp;nbsp; &amp;nbsp; &amp;nbsp; gradingPoints&lt;br&gt;&amp;nbsp; &amp;nbsp; }" style="shape=cylinder3;whiteSpace=wrap;html=1;boundedLbl=1;backgroundOutline=1;size=15;align=left;" parent="1" vertex="1">
                    <mxGeometry x="812.5" y="70" width="227.5" height="464" as="geometry"/>
                </mxCell>
                <mxCell id="33" value="&lt;h1&gt;loadfeedbackCodes&lt;/h1&gt;" style="text;html=1;resizable=0;autosize=1;align=center;verticalAlign=middle;points=[];fillColor=none;strokeColor=none;rounded=0;" parent="1" vertex="1">
                    <mxGeometry x="377.5" y="80" width="240" height="50" as="geometry"/>
                </mxCell>
                <mxCell id="34" value="&lt;b&gt;users&lt;/b&gt;&lt;br&gt;&lt;div&gt;&lt;span&gt;pConditions:&lt;/span&gt;&lt;/div&gt;&lt;div&gt;&lt;span&gt;[&lt;/span&gt;&lt;/div&gt;&lt;div&gt;&lt;span&gt;&amp;nbsp; &amp;nbsp;0:&lt;/span&gt;&lt;/div&gt;&lt;div&gt;&lt;span&gt;&amp;nbsp; &amp;nbsp;{&lt;/span&gt;&lt;/div&gt;&lt;div&gt;&lt;span&gt;&amp;nbsp; &amp;nbsp; &amp;nbsp; condition&lt;/span&gt;&lt;/div&gt;&lt;div&gt;&lt;span&gt;&amp;nbsp; &amp;nbsp; &amp;nbsp; passage&lt;/span&gt;&lt;/div&gt;&lt;div&gt;&amp;nbsp; &amp;nbsp; &amp;nbsp; recallreText&lt;/div&gt;&amp;nbsp; &amp;nbsp; &amp;nbsp; recall3DaysreText&lt;div&gt;&amp;nbsp; &amp;nbsp; &amp;nbsp; recall1WeekreText&lt;/div&gt;&lt;div&gt;&amp;nbsp; &amp;nbsp; &amp;nbsp; recallreGrade&lt;/div&gt;&lt;div&gt;&amp;nbsp; &amp;nbsp; &amp;nbsp; recallreGradeRatio&lt;/div&gt;&lt;div&gt;...&lt;/div&gt;&lt;div&gt;&lt;span&gt;&amp;nbsp; &amp;nbsp;},&lt;/span&gt;&lt;/div&gt;&lt;div&gt;&lt;span&gt;...&lt;/span&gt;&lt;/div&gt;&lt;div&gt;&lt;span&gt;]&lt;/span&gt;&lt;/div&gt;&lt;div&gt;&lt;span&gt;...&lt;/span&gt;&lt;br&gt;&lt;/div&gt;" style="shape=cylinder3;whiteSpace=wrap;html=1;boundedLbl=1;backgroundOutline=1;size=15;align=left;" parent="1" vertex="1">
                    <mxGeometry x="49" y="188" width="130" height="310" as="geometry"/>
                </mxCell>
                <mxCell id="35" value="For every user" style="ellipse;whiteSpace=wrap;html=1;" parent="1" vertex="1">
                    <mxGeometry x="365" y="303" width="120" height="80" as="geometry"/>
                </mxCell>
            </root>
        </mxGraphModel>
    </diagram>
</mxfile>